<svg width="512" height="512" viewBox="0 0 512 512" fill="none" xmlns="http://www.w3.org/2000/svg">
<path d="M464 64H48C21.5 64 0 85.5 0 112V400C0 426.5 21.5 448 48 448H464C490.5 448 512 426.5 512 400V112C512 85.5 490.5 64 464 64ZM48 96H464C472.8 96 480 103.2 480 112V153.4C458.1 171.9 426.8 197.4 329.4 274.7C312.5 288.1 279.2 320.4 256 320C232.8 320.4 199.4 288.1 182.6 274.7C85.2 197.4 53.9 171.9 32 153.4V112C32 103.2 39.2 96 48 96ZM464 416H48C39.2 416 32 408.8 32 400V195C54.8 213.7 90.8 242.6 162.7 299.7C183.2 316.1 219.4 352.2 256 352C292.4 352.3 328.3 316.5 349.3 299.7C421.2 242.6 457.2 213.7 480 195V400C480 408.8 472.8 416 464 416Z" fill="black"/>
</svg>
