<svg width="18" height="24" viewBox="0 0 18 24" fill="none" xmlns="http://www.w3.org/2000/svg">
<path d="M9 4.5C6.51867 4.5 4.5 6.51867 4.5 9C4.5 11.4813 6.51867 13.5 9 13.5C11.4813 13.5 13.5 11.4813 13.5 9C13.5 6.51867 11.4813 4.5 9 4.5ZM9 12C7.34578 12 6 10.6542 6 9C6 7.34578 7.34578 6 9 6C10.6542 6 12 7.34578 12 9C12 10.6542 10.6542 12 9 12ZM9 0C4.02942 0 0 4.02942 0 9C0 12.6287 1.26422 13.6421 8.07506 23.5158C8.52197 24.1613 9.47798 24.1614 9.92498 23.5158C16.7358 13.6421 18 12.6287 18 9C18 4.02942 13.9706 0 9 0ZM9 22.2155C2.47055 12.7729 1.5 12.0232 1.5 9C1.5 6.99666 2.28014 5.11327 3.6967 3.6967C5.11327 2.28014 6.99666 1.5 9 1.5C11.0033 1.5 12.8867 2.28014 14.3033 3.6967C15.7199 5.11327 16.5 6.99666 16.5 9C16.5 12.023 15.5301 12.772 9 22.2155Z" fill="black"/>
</svg>
