<svg width="512" height="512" viewBox="0 0 512 512" fill="none" xmlns="http://www.w3.org/2000/svg">
<g clip-path="url(#clip0)">
<path d="M493.255 56.2361L455.765 18.7461C430.772 -6.2469 390.25 -6.2479 365.255 18.7461L12.8384 371.162L0.151417 485.346C-1.54658 500.632 11.3714 513.549 26.6554 511.85L140.839 499.163L493.256 146.746C518.248 121.752 518.248 81.2291 493.255 56.2361ZM398.059 196.686L174 420.745V386H126V338H91.2554L315.314 113.941L398.059 196.686ZM126.147 468.598L67.1524 475.153L36.8474 444.848L43.4024 385.853L63.2554 366H98.0004V414H146V448.745L126.147 468.598ZM470.627 124.118L420.686 174.059L337.941 91.3141L387.882 41.3731C400.387 28.8681 420.63 28.8661 433.137 41.3731L470.627 78.8631C483.133 91.3691 483.134 111.61 470.627 124.118Z" fill="black"/>
</g>
<defs>
<clipPath id="clip0">
<rect width="512" height="512" fill="white"/>
</clipPath>
</defs>
</svg>
