<svg width="512" height="512" viewBox="0 0 512 512" fill="none" xmlns="http://www.w3.org/2000/svg">
<g clip-path="url(#clip0)">
<path d="M493.09 351.3L384.7 304.8C378.471 302.144 371.549 301.575 364.97 303.18C358.391 304.784 352.508 308.475 348.2 313.7L304.1 367.6C234.735 333.484 178.616 277.365 144.5 208L198.4 163.9C203.625 159.594 207.315 153.713 208.92 147.136C210.524 140.558 209.956 133.638 207.3 127.41L160.8 18.9102C157.893 12.182 152.718 6.68627 146.177 3.37918C139.636 0.0721004 132.142 -0.836956 125 0.810194L24.2002 24.1102C17.3099 25.6686 11.157 29.53 6.75732 35.057C2.35759 40.5839 -0.0259448 47.4459 0.000213025 54.5102C0.000213025 307.8 205.3 512 457.49 512C464.579 512.013 471.461 509.615 477.005 505.199C482.55 500.783 486.427 494.612 488 487.7L511.19 387C512.836 379.872 511.925 372.392 508.617 365.867C505.308 359.341 499.813 354.186 493.09 351.3ZM456.89 480C222.4 479.7 32.3002 289.7 32.1002 55.2102L131.7 32.2102L177.7 139.6L104.9 199.1C153.3 302.3 209.4 358.6 313 407.2L372.5 334.4L479.89 380.4L456.89 480Z" fill="black"/>
</g>
<defs>
<clipPath id="clip0">
<rect width="512" height="512" fill="white"/>
</clipPath>
</defs>
</svg>
