<svg width="576" height="512" viewBox="0 0 576 512" fill="none" xmlns="http://www.w3.org/2000/svg">
<g clip-path="url(#clip0)">
<path d="M551.991 64H129.28L120.951 19.577C118.822 8.226 108.911 0 97.362 0H12C5.373 0 0 5.373 0 12V20C0 26.627 5.373 32 12 32H90.72L160.647 404.946C150.305 416.314 144 431.42 144 448C144 483.346 172.654 512 208 512C243.346 512 272 483.346 272 448C272.012 436.763 269.051 425.723 263.417 416H408.584C402.95 425.723 399.989 436.763 400.001 448C400.001 483.346 428.655 512 464.001 512C499.347 512 528.001 483.346 528.001 448C528.001 430.007 520.566 413.76 508.613 402.132C506.022 391.891 496.76 384 485.328 384H189.28L177.28 320H508.661C520.029 320 529.838 312.024 532.157 300.895L575.488 92.895C578.592 77.991 567.215 64 551.991 64ZM240 448C240 465.645 225.645 480 208 480C190.355 480 176 465.645 176 448C176 430.355 190.355 416 208 416C225.645 416 240 430.355 240 448ZM464 480C446.355 480 432 465.645 432 448C432 430.355 446.355 416 464 416C481.645 416 496 430.355 496 448C496 465.645 481.645 480 464 480ZM502.156 288H171.28L135.28 96H542.156L502.156 288Z" fill="black"/>
</g>
<defs>
<clipPath id="clip0">
<rect width="576" height="512" fill="white"/>
</clipPath>
</defs>
</svg>
