<svg width="512" height="512" viewBox="0 0 512 512" fill="none" xmlns="http://www.w3.org/2000/svg">
<path d="M491.609 73.6249L437.748 19.7859C411.37 -6.59312 368.672 -6.59712 342.288 19.7849L24.9099 335.089L0.328879 484.085C-2.34612 500.3 11.6969 514.346 27.9159 511.672L176.911 487.09L492.237 169.712C518.567 143.381 518.818 100.833 491.609 73.6249ZM120.644 302L290.903 132.845L379.154 221.096L210 391.355V350H162V302H120.644ZM82.1319 458.132L53.8689 429.869L66.0089 356.282L84.4089 338H126V386H174V427.59L155.718 445.991L82.1319 458.132ZM461.117 138.599L461.066 138.65L461.015 138.701L412.985 187.045L324.955 99.0149L373.299 50.9849L373.349 50.9349L373.399 50.8849C382.546 41.7389 397.377 41.6259 406.635 50.8839L460.489 104.738C470.367 114.615 470.428 129.287 461.117 138.599Z" fill="black"/>
</svg>
