<svg width="448" height="512" viewBox="0 0 448 512" fill="none" xmlns="http://www.w3.org/2000/svg">
<path d="M432 80H349.6L315.6 23.3C311.331 16.1873 305.292 10.3022 298.072 6.21865C290.851 2.13514 282.695 -0.00738629 274.4 1.9132e-05H173.6C165.305 -0.00738629 157.149 2.13514 149.928 6.21865C142.708 10.3022 136.669 16.1873 132.4 23.3L98.4 80H16C11.7565 80 7.68687 81.6857 4.68629 84.6863C1.68571 87.6869 0 91.7566 0 96L0 112C0 116.243 1.68571 120.313 4.68629 123.314C7.68687 126.314 11.7565 128 16 128H32L53.2 467C53.9631 479.186 59.3416 490.623 68.2406 498.984C77.1395 507.344 88.89 511.998 101.1 512H346.9C359.11 511.998 370.86 507.344 379.759 498.984C388.658 490.623 394.037 479.186 394.8 467L416 128H432C436.243 128 440.313 126.314 443.314 123.314C446.314 120.313 448 116.243 448 112V96C448 91.7566 446.314 87.6869 443.314 84.6863C440.313 81.6857 436.243 80 432 80ZM173.6 48H274.4L293.6 80H154.4L173.6 48ZM346.9 464H101.11L80.11 128H367.91L346.9 464Z" fill="black"/>
</svg>
