<svg width="448" height="512" viewBox="0 0 448 512" fill="none" xmlns="http://www.w3.org/2000/svg">
<path d="M440 64H336L302.4 19.2C297.929 13.2386 292.131 8.40003 285.466 5.06749C278.801 1.73496 271.452 0 264 0L184 0C176.548 0 169.199 1.73496 162.534 5.06749C155.869 8.40003 150.071 13.2386 145.6 19.2L112 64H8C5.87827 64 3.84344 64.8429 2.34315 66.3431C0.842855 67.8434 0 69.8783 0 72L0 88C0 90.1217 0.842855 92.1566 2.34315 93.6569C3.84344 95.1571 5.87827 96 8 96H26.9L60.1 468.3C61.1736 480.237 66.6739 491.34 75.5192 499.426C84.3646 507.513 95.9152 511.998 107.9 512H340.1C352.085 511.998 363.635 507.513 372.481 499.426C381.326 491.34 386.826 480.237 387.9 468.3L421.1 96H440C442.122 96 444.157 95.1571 445.657 93.6569C447.157 92.1566 448 90.1217 448 88V72C448 69.8783 447.157 67.8434 445.657 66.3431C444.157 64.8429 442.122 64 440 64ZM171.2 38.4C172.696 36.4186 174.629 34.8099 176.85 33.6996C179.07 32.5894 181.517 32.0077 184 32H264C266.483 32.0077 268.93 32.5894 271.15 33.6996C273.371 34.8099 275.304 36.4186 276.8 38.4L296 64H152L171.2 38.4ZM356 465.4C355.671 469.387 353.851 473.103 350.905 475.809C347.958 478.515 344.1 480.011 340.1 480H107.9C103.9 480.011 100.042 478.515 97.0952 475.809C94.1486 473.103 92.3294 469.387 92 465.4L59 96H389L356 465.4Z" fill="black"/>
</svg>
