<svg width="576" height="512" viewBox="0 0 576 512" fill="none" xmlns="http://www.w3.org/2000/svg">
<path d="M402.3 344.9L434.3 312.9C439.3 307.9 448 311.4 448 318.6V464C448 490.5 426.5 512 400 512H48C21.5 512 0 490.5 0 464V112C0 85.4998 21.5 63.9998 48 63.9998H321.5C328.6 63.9998 332.2 72.5998 327.2 77.6998L295.2 109.7C293.7 111.2 291.7 112 289.5 112H48V464H400V350.5C400 348.4 400.8 346.4 402.3 344.9ZM558.9 143.1L296.3 405.7L205.9 415.7C179.7 418.6 157.4 396.5 160.3 370.1L170.3 279.7L432.9 17.0998C455.8 -5.8002 492.8 -5.8002 515.6 17.0998L558.8 60.2998C581.7 83.1998 581.7 120.3 558.9 143.1ZM460.1 174L402 115.9L216.2 301.8L208.9 367.1L274.2 359.8L460.1 174ZM524.9 94.2998L481.7 51.0998C477.6 46.9998 470.9 46.9998 466.9 51.0998L436 81.9998L494.1 140.1L525 109.2C529 105 529 98.3998 524.9 94.2998Z" fill="black"/>
</svg>
