<svg width="448" height="448" viewBox="0 0 448 448" fill="none" xmlns="http://www.w3.org/2000/svg">
<path d="M433.941 97.941L350.059 14.059C341.057 5.05724 328.848 6.65676e-05 316.118 0H48C21.49 0 0 21.49 0 48V400C0 426.51 21.49 448 48 448H400C426.51 448 448 426.51 448 400V131.882C448 119.152 442.943 106.943 433.941 97.941ZM272 48V128H144V48H272ZM394 400H54C52.4087 400 50.8826 399.368 49.7574 398.243C48.6321 397.117 48 395.591 48 394V54C48 52.4087 48.6321 50.8826 49.7574 49.7574C50.8826 48.6321 52.4087 48 54 48H96V152C96 165.255 106.745 176 120 176H296C309.255 176 320 165.255 320 152V51.882L398.243 130.125C398.8 130.682 399.242 131.344 399.544 132.072C399.845 132.8 400 133.58 400 134.368V394C400 395.591 399.368 397.117 398.243 398.243C397.117 399.368 395.591 400 394 400ZM224 200C175.477 200 136 239.477 136 288C136 336.523 175.477 376 224 376C272.523 376 312 336.523 312 288C312 239.477 272.523 200 224 200ZM224 328C201.944 328 184 310.056 184 288C184 265.944 201.944 248 224 248C246.056 248 264 265.944 264 288C264 310.056 246.056 328 224 328Z" fill="black"/>
</svg>
