<svg width="18" height="18" viewBox="0 0 18 18" fill="none" xmlns="http://www.w3.org/2000/svg">
<path d="M6.81429 0.664062C8.48894 0.664063 10.095 1.32932 11.2792 2.51347C12.4633 3.69763 13.1286 5.3037 13.1286 6.97835C13.1286 8.54235 12.5554 9.98006 11.6131 11.0875L11.8754 11.3498H12.6429L17.5 16.2069L16.0429 17.6641L11.1857 12.8069V12.0395L10.9234 11.7772C9.816 12.7195 8.37829 13.2926 6.81429 13.2926C5.13963 13.2926 3.53357 12.6274 2.34941 11.4432C1.16525 10.2591 0.5 8.653 0.5 6.97835C0.5 5.3037 1.16525 3.69763 2.34941 2.51347C3.53357 1.32932 5.13963 0.664063 6.81429 0.664062ZM6.81429 2.60692C4.38571 2.60692 2.44286 4.54978 2.44286 6.97835C2.44286 9.40692 4.38571 11.3498 6.81429 11.3498C9.24286 11.3498 11.1857 9.40692 11.1857 6.97835C11.1857 4.54978 9.24286 2.60692 6.81429 2.60692Z" fill="#686B6F"/>
</svg>
